<?xml version="1.0" standalone="no"?><!DOCTYPE svg PUBLIC "-//W3C//DTD SVG 1.1//EN" "http://www.w3.org/Graphics/SVG/1.1/DTD/svg11.dtd"><svg t="1753420108689" class="icon" viewBox="0 0 1153 1024" version="1.1" xmlns="http://www.w3.org/2000/svg" p-id="5290" xmlns:xlink="http://www.w3.org/1999/xlink" width="288.25" height="256"><path d="M1141.049247 465.528554l-242.013339-419.170178A92.716753 92.716753 0 0 0 818.756769 0h-483.936222a92.671525 92.671525 0 0 0-80.27914 46.358376L12.528069 465.528554a92.716753 92.716753 0 0 0 0 92.716753l242.013338 419.170178a92.76198 92.76198 0 0 0 80.27914 46.358377h483.936222a92.716753 92.716753 0 0 0 80.279139-46.358377l242.013339-419.170178a92.716753 92.716753 0 0 0 0-92.716753z m-325.639327 285.251005a70.600415 70.600415 0 0 1-99.862727 0l-130.436641-130.436641a191.765381 191.765381 0 0 1-252.280023-252.280023l116.732653 116.732653 99.862727-99.862727L433.055077 268.200168a191.720154 191.720154 0 0 1 252.280023 252.280023l130.436642 130.436641a70.645643 70.645643 0 0 1-0.135684 99.907955z" fill="#499C54" p-id="5291"></path></svg>